<mxfile host="app.diagrams.net" modified="2024-05-26T12:01:08.142Z" agent="Mozilla/5.0 (X11; Linux x86_64) AppleWebKit/537.36 (KHTML, like Gecko) Chrome/124.0.0.0 Safari/537.36 Edg/124.0.0.0" etag="8JmCWIcsJDy4jXcinXun" version="24.4.8" type="github">
  <diagram name="Page-1" id="SmX3zbJ8QfUwmA-vFjmq">
    <mxGraphModel dx="2143" dy="765" grid="0" gridSize="10" guides="1" tooltips="1" connect="1" arrows="1" fold="1" page="1" pageScale="1" pageWidth="827" pageHeight="1169" math="0" shadow="0">
      <root>
        <mxCell id="0" />
        <mxCell id="1" parent="0" />
        <mxCell id="YwGUfQmkmMPsnKosTZOE-3" value="1..n" style="edgeStyle=orthogonalEdgeStyle;rounded=0;orthogonalLoop=1;jettySize=auto;html=1;" edge="1" parent="1" source="YwGUfQmkmMPsnKosTZOE-1" target="YwGUfQmkmMPsnKosTZOE-2">
          <mxGeometry relative="1" as="geometry" />
        </mxCell>
        <mxCell id="YwGUfQmkmMPsnKosTZOE-7" style="rounded=0;orthogonalLoop=1;jettySize=auto;html=1;" edge="1" parent="1" source="YwGUfQmkmMPsnKosTZOE-1" target="YwGUfQmkmMPsnKosTZOE-6">
          <mxGeometry relative="1" as="geometry" />
        </mxCell>
        <mxCell id="YwGUfQmkmMPsnKosTZOE-13" value="" style="edgeStyle=orthogonalEdgeStyle;rounded=0;orthogonalLoop=1;jettySize=auto;html=1;" edge="1" parent="1" source="YwGUfQmkmMPsnKosTZOE-1" target="YwGUfQmkmMPsnKosTZOE-12">
          <mxGeometry relative="1" as="geometry" />
        </mxCell>
        <mxCell id="YwGUfQmkmMPsnKosTZOE-1" value="Function App" style="rounded=1;whiteSpace=wrap;html=1;" vertex="1" parent="1">
          <mxGeometry x="202" y="174" width="120" height="60" as="geometry" />
        </mxCell>
        <mxCell id="YwGUfQmkmMPsnKosTZOE-2" value="function" style="whiteSpace=wrap;html=1;rounded=1;" vertex="1" parent="1">
          <mxGeometry x="502" y="174" width="120" height="60" as="geometry" />
        </mxCell>
        <mxCell id="YwGUfQmkmMPsnKosTZOE-4" value="SQLServer" style="shape=cylinder3;whiteSpace=wrap;html=1;boundedLbl=1;backgroundOutline=1;size=15;" vertex="1" parent="1">
          <mxGeometry x="265" y="458" width="102" height="122" as="geometry" />
        </mxCell>
        <mxCell id="YwGUfQmkmMPsnKosTZOE-5" value="API Mgmt Service" style="rounded=1;whiteSpace=wrap;html=1;" vertex="1" parent="1">
          <mxGeometry x="13" y="489" width="120" height="60" as="geometry" />
        </mxCell>
        <mxCell id="YwGUfQmkmMPsnKosTZOE-8" style="rounded=0;orthogonalLoop=1;jettySize=auto;html=1;" edge="1" parent="1" source="YwGUfQmkmMPsnKosTZOE-6" target="YwGUfQmkmMPsnKosTZOE-4">
          <mxGeometry relative="1" as="geometry" />
        </mxCell>
        <mxCell id="YwGUfQmkmMPsnKosTZOE-11" value="" style="edgeStyle=orthogonalEdgeStyle;rounded=0;orthogonalLoop=1;jettySize=auto;html=1;" edge="1" parent="1" source="YwGUfQmkmMPsnKosTZOE-6" target="YwGUfQmkmMPsnKosTZOE-10">
          <mxGeometry relative="1" as="geometry" />
        </mxCell>
        <mxCell id="YwGUfQmkmMPsnKosTZOE-6" value="Service Connector" style="rounded=1;whiteSpace=wrap;html=1;" vertex="1" parent="1">
          <mxGeometry x="308" y="309" width="120" height="60" as="geometry" />
        </mxCell>
        <mxCell id="YwGUfQmkmMPsnKosTZOE-9" value="" style="shape=image;verticalLabelPosition=bottom;labelBackgroundColor=default;verticalAlign=top;aspect=fixed;imageAspect=0;image=data:image/png,iVBORw0KGgoAAAANSUhEUgAAA1YAAADMCAYAAABwSTLTAAAABHNCSVQICAgIfAhkiAAAIABJREFUeF7snQ1cVGXa/3/MjBxEnFLBtZx1W1A30ArNTbTy5UmiQiwNW0t7lHTzbSOy1Pgnm6auaa5LmrnsalhpapKuIhVCG5Ib6LqomdKq+NQ2JSukNSgyAzP8rzPMwPAyMIip0O98PqPMud+u+3vPnHP/znXd93h1v/GGSvAgARIgARIgARIgARIgARIgARK4ZAKaSy7JgiRAAiRAAiRAAiRAAiRAAiRAAnYCFFb8IJAACZAACZAACZAACZAACZBACwlQWLUQIIuTAAmQAAmQAAmQAAmQAAmQAIUVPwMkQAIkQAIkQAIkQAIkQAIk0EICFFYtBMjiJEACJEACJEACJEACJEACJEBhxc8ACZAACZAACZAACZAACZAACbSQAIVVCwGyOAmQAAmQAAmQAAmQAAmQAAlQWPEzQAIkQAIkQAIkQAIkQAIkQAItJKDr/aubW1gFi5MACZAACZAACZAACZAACZDAT5uAV/cbb6j8aSNg70mABEiABEiABEiABEiABEigZQQYCtgyfixNAiRAAiRAAiRAAiRAAiRAAqCw4oeABEiABEiABEiABEiABEiABFpIgMKqhQBZnARIgARIgARIgARIgARIgAQorPgZIAESIAESIAESIAESIAESIIEWEqCwaiFAFicBEiABEiABEiABEiABEiABCit+BkiABEiABEiABEiABEiABEighQQorFoIkMVJgARIgARIgARIgARIgARIgMKKnwESIAESIAESIAESIAESIAESaCEBCqsWAmRxEiABEiABEiABEiABEiABEqCw4meABEiABEiABEiABEiABEiABFpIgMKqhQBZnARIgARIgARIgARIgARIgAQorPgZIAESIAESIAESIAESIAESIIEWEqCwaiFAFicBEiABEiABEiABEiABEiABCit+BkiABEiABEiABEiABEiABEighQQorFoIkMVJgARIgARIgARIgARIgARIgMKKnwESIAESIAESIAESIAESIAESaCGB5gmr9t1g1V5Ci16dYW1/CeVYhARIgARIgARIgARIgARIgARaAYFmCCtvmG99BcVDR6GiOeJK2wOlQ9egOPQOVF4GIPrbxmPRxkzszfsCXxw9jL0b4xCq1FRsGD4Ny7dkYv9hST+8H5lvLsL42/U1GbrHYHPeeox3OdWQWcqYJBz+QupQX9LO/qw0rP9jHMIDXRprqGCzz/lj/JuHkfRIEwY1u14WIAES+OkSCEC78UfR/tYrcV25km39dEeUPScBEvCUwBWeV2kNGP/GXqyfHOQwUEHwhFVI27sf+9+MgaE5c2ZPu3gF8wXN2Ib9ieFQZ7/Bsduw949Vf7s3QUHQgwnYvGVurfm5+/xtK6UZwsoCZf8L6Ggbj+88FVeqqLr7FZRoNqLL/v3waik7fTh+/+p0BPxjISbecwfuuOdRvPDeUZRUVFXsH7kc65dGQ9ntSH9gEpb+KwAxr61H3O3NF0Tmz/+MyNtuw22D7sGjc9fgkPdILH9rJcYHNtURBWGzNyPpSeeXrKn8TCcBEiABEiABEiABEmh1BKxF2LM+EckfG6tM9w3HjJmByH76btwxMRlG6xXqUfdorNq+COHNn+5ePgODo7Foy0fYNDsCgZ28L1+9raimZggr6VXlf+D7yWzPxJWrqNqzE7rL8MFSgsMQqstFyro9KDhngqnwGPZsy0CBWrfvUMTNGgLj61PxlKTnF0v6N8eQsTIWz21T8NisxxDU7KcGZUCFGWZTMQr27ULiU5Ow7Fg/TJ8ZjqaeA3fsHogAXSv6JNBUEiABEiABEiABEiCBZhIww5idgj2nzFXlfAPQUWtEQb7jfTNru+TsvgZ0D/C55OKXo6Diq6Dkg+cwZk46TA6nx+WotzXV0TxhpfbM6oG4+hFEldq02XgKRt8wRI8NsbskXQ9lQDjClGxsfLegTooZh95LhTF4KIYE1Elq9lsjUrZlA6FD0U81oJco8zclLHH/YRzen4mkGWEiuMQF/ZdPsDxcj5Cp4j7NScL4bu7y1hig+A/BXEdd+3cnIW6If1Vig22oSeJqHbMIm3fvxf48CYlMiZP+V503RCZg/Uf7cThPQiE3JmBkj2Z3lAVIgASuNQKaUfCZvRM+dy1B+8d3osPTWWgfNgiaUHk/cSd8n8qC7/BhDUYGeN26Fh2eWYt2neUi0Xct/MZPqMmnGwufuVvRzk/tsAHa4W+jw7N58IvPQ4eICAcF5/mj8Jst7d4zH+2f3QnvznUhKdCELBFbcqS85J08Cxr7XUaBV28p85Sj3onzobO3J4dhPjrMXAHv8K3S7k4ov3hM+pkO7641dXuFvg2/xyeLzc2o58a6d4ma+vgXCZBAKyOgjMSqnG1YFLsISW9uQ2aWzLmelIftjy7C+i3bkPZRJjbPHiozsPpH0CNJ2LtX5mK9FNiXebw5viafbzSS8jYjprtaTo+wGauwLUtC+OzzqkUY6YhQUgYnIHP3ckyLXYX1Gzdj2+5MbPtDNILslxmX0MO+cdj8vszH9EORIPVse+bXCF+6F9tiQ6oNU4Yvwt7UuQiWh/3V9c6WeqUfmbLsZNUElzmubwiiX1yPzBzHnO6PIxvsozIkAWkbYxDiL5FVn+xH2rww+zxZkTlkgn1uKeX3ix1LxyO0Cc+AIktulqeoc8v9YucqRP+iDlMJfYz+w+Yqm3LE3smh1c4G8782Yun6XBR57EzRI3TCcmyWOavKfP/7CRjquHQbwuciKVXskDn2/r3Sjsyxq8a3ivf652Ow6A0Zi9RMZErYYbg615bDHq64Jg7T/rgem1PSZNwkam1gE52u08WWvG2+sFJba0xc/Uiiyt7Jb1KwcFEuDLM2Ie2NBET3rQGl9DAg4JuTcD4wqAXlmwJ8Yw6AoXvLb7Tmr4w40ykAAeoXQiYpxndj8cDdt+Hu6RkImDQND3cvxsYn78ZzGSYcSxqDOwZNxcZCd3lrrOz3UATOrBiDu+64G0+miIftJVnP5dtIuU5RmPN8PxyMfwB39L8D4xbuhlF9OtB3OlbO64f8BXL+1w9g4fEwPB8f3eAXsRYjviEBErj2CWiCoFF24uLbo3Bh00543bMW7X+Zh7I3R6E0eS0qB8wS8VSnGz1E0IR3RfmWWSg/28QT1MCZ8OlrRNma/ji/NAIXDx61V+bVX8TbzUaY/yrn/zgBFl1/6OT6VO/wHgXvyP6wvheB80v640Lqh6i0SS7/mWgf1R+2VPV8BMoKB8EncmyNuNOLQDz3Ii78cRTMX+1CxakA6G52TkTk7+CesB7Zicrm1PNtE32tZzxPkAAJXNMEtEHo57sLsyeOQeTvdiFgZhKWDzyEeY/J+/9Nxg9jnkZ0r9o90IvgWBkbgJRnZ2PjiSauCVo9OppzsWy8hPD9OhKJp4chbtLQmgf5PwtDP9MaTB0/DmMeisXuoDgsnlhnycfniRj3QCJyTXuwcNgdGPOnz5pGKvX2+SoRU38j/Xg6G4Ezn0aUXUHoMXTeSsQFSh9H343bfj0CT72VD0sDNZqzFyJyfDKOFe/Cc3ffgUiZK5slkmvO6jgE/WseHhp0B2574Dns7vY0lj/v0qe6dUmZhFemw//vv8OIX9+BB+blIfDOGlGoZu84OBrBB15ApNR5z7PZ6D51MaZfwnIbtS7/MYvx2pSOSJ81wj6XfSBeHCH2uWwcVr40EMaV43D3HbdhxG/fAR5ZjhfH1EjnfgO6YtezMhZR4/Dns1EyVqHVY9UxNBRYOxXjoiMxNcXnEqPW6sLx7P2lCSu17obE1Y8pquz9MaNgm7gYo2KRYgrDnI3bkORQ9t6OsDuzG5Wsfp0sEtbX4kMVVBUWSJAgzPs24s9p4iHrHoKQzj+gyGKAwdCweGsqb8GuNUg+bJJaTTj0ZjJ2W8MQJrtyuC1nLYPFqsDQ2yBfPXFDHz4mcbyytuuhkeiavQaJ2cUwW4ux5235kIqHrcqb1eLeswISIIGrScBmRMXhnCoLivNgPW+C9bAIDvXM+RxYzwZAo3qlnMf1E9B+9CDYdkyG5Vv1+tLEod7QvA3QXC/ufVsRbGfUNQNB0N3WB9ZPlqDCJNdQscH68duQy2ADh3qNFa9SV4P8b0blmWNim3ix+o2C1/HVMH9ZJOeLYN23A7Yew6B13oEseag4dMxRnwkVR3Kg+dV9sCf7RkDX7SjKvzA1s54GzOMpEiCB1kvAakTGrlyZJcnV5cRBERElyN0hcxx13leYi/xvuqJnlQvJ3kel+2N45aUwHFz0JBL3eXD9U+tftxG5JQEICg1C2bkfEGAw1AirElmKsumYXNnkKD2Gd/52UkSH04vSAqznspCyo8Ber/mLPThYGoRgtR/6e/HYcBNSFolQK5RUqwn5hwvs/ffkUIZEIaIiFYmrc1GsMirORXJSKjA4yu2cULkzCsMq0pG47hBMUsZ0OBlrdtWJBMt/B4nbquwt/nQN3tgXgIF3XsqeAgZEPTwQJ5NecMx/zSg+fEiW9zjmsh+vwbIMeaAnppvyN0qbZzAwfFi1dyz/AxmrcyqJYmTtOynz4T7VY2U+tAvvOEIxCz7JhbF7TwReoeU5LWvGIa4gG1R8N/QG+OJ/UArZqOIyraly98Exf7MHf47Lxa7IxVi/8PeI+XQckr8pRomAC5anqMbSOiW7B8GgFOHgN3K+Yd3jrql65/W9g8Uzlo8CGWnDfQlYLgv0/E0SS2uUL6CILqObdVxN5TUVOhY9qi1WFKHY5AODOOTcljPtwtL/1xMJs8RFHHMMqasXYtkOI/z9A+A/fDn2h7uanovr1KfLl0FX1gPCEyRAAleQgAmV1XHr8oWWh0WV6lMe+yF/2+QC5/K4TDtwilyUVuDCSVXQeHD8ZwUufhIPn99IKN7ZdFg+WILy4q7Q+Jlgc/V2Vbja4VKvZSfM7/WEEr4BfneKGPpovkwUjNDoRfDdvAId+7rakAMv5x2oTESc6tlyHqd2oiJyJnSdV6O8RwQ0X25FhfRT19x6POgys5AACbQWAiUoq57fyfp3ecAsk07HYUaZ1RuKyxws5JEngPxXMebDYs86KGF3MUtfweR+wJkCI77RyfVUrrfqFgz26ZNJHqC71GQuLQE6dMR1buZ9njUquUrN+KE6cxnMamNqnd0lEgunkPIfj2uqlbGjvz86Fh7EKReHg9ko80u91OvG5o4/c5RxmS+WqA/UHGF2agMlxWcgPXccIoZkzwNFr7dPr5s1zVTEGRFgQsGpmtqctfr763Hm+Kla9RnFduVO/2ph9UNJjcS0CEOVmXO7DEvpDzVlzeKI0EoYaC06P96bS/dYOW2q9lxdGVFVg0K8NJmyWLDYYH9CYd6XjlwMQfRI9Ump66Eg9JEoBB7JkLwtBOkbiice64dTH6QiH6EYHxuBopUPYcTocZj6XDIO1v9sVDWo9SCvr8vuKUp3GDrJF/h0cKNtGD8W13HU3Xh0hRFhLyxGjLjAi01FMG6dKi5V2c2w+iXhiHZVz4MESOCnRMC6Zz7KO89C+7sG1XTbJjcgdcLgPORvr+o7gQic/bNQ+uoolP2fCKSxskZKbvmVFj28nGui1HI+AfBys+FT5akVKEsahAvypFH74Mtod73se1Sq1jsFJUv6uLymoLxBr5fUX5GF8pN6CQeUkMM+PxevXLrd2mbXU91J/kECJPBTI3As+aWq0Ldn1PXvjsNqgVnnjeotHmSzBefVUD/yaUw3ZOC390RizMSpeOEDlwfeanHJe50LxMBAWZhVVNzkeiKLTOwVxeWC6XtdtQBodEzEY2ZSxUdDC8caLViVWHKuBOYA2dDCRUQpN8jD93NFbm0uEYFi1nd0EV4KAjrXXp/k7e0qUSRyqpseJaerPEsemFWTRR7QlVzQo2sDy3RUsaZ39RZKKYMhAGaJovDUY9csWy5j5pYLK9UYVVzteRxdP748u/+5659yewzmzhiJ0O6ijBV/BEdGY2jHkzh4TCYKpgwkrtyHPs+txKJHw8TbI1+WbiEY+UwSXnuwBO+sSEGtr4iqXpWql/3JQIOHfPVk0qHopa0h45GQ/BqiL6zBgjfFLarzgRp+aDZXzQz8h4st9sWPVYel1AL9LwKht7fTeF7VjdZv5ATHgkL5/YNHxiOsOAM7TzRSrlMowocHSf0SHnnoEIwWuVAoZhzMzAXum4YYx293KT3CMFLy8SABEvgJEijLgnnTalQOXIH2/R3XgTMFsHUdJt4flYeE6fV/EFqn58g/Alp5UmgP9zOeRKVGRBcKUCEeL93ds6CViQV0Eho4/PGaMD5XrN79oL1JbUe8Z8Y82CqkvM4M69EciZmfgXZyA7YffoOgC2zsuiRlJBzQq4+sGdPnoPxL9TnopdTjahz/JgES+CkRMH+fjYXPrkHZw8vxyoSgKo/K8QIYA4diqH1TL3W+FVW1GZm8UwWDoi6zUKMCxHv12P3iunI9Au5FzFQJ/ZM5oz54POIe7op9u3Y3MdE34+hxIwIGDkOwqkeUIHEADKwRerVbqP2uMAMZBwIx/vnxCO6klvVH6MAQ92XFS2ORnQGDfiZZZX5r/mQnsjtGYa7DZsi8MWZqBMwZu5DrxrVk/jQbB7tH4bE7q67VSmAUxg+vvfObfkA0HrN3Rjjc/gQeC5GoKXmQ1uzDegzpGacwcMocjJSNRdTxMAwOkx28ZS77YQbMw59G3PCqUEw77wf1yN6Z3QTvZltx2Qs4b6ctr7jS0uBuVC2vuKYGs6kEAf8Th79MXS4fLBOK/3MQKb+fh41qiJ8cxnefw8QLcZgzZTnSnveXL4jkMSviCk3FSVdvkhKGhJzDSHBWnT0Ptz2ZUs+FqfSdhrTD00Q4iqtTwv9ydy3AxCTZ3t3+gczFO2tzsfJ52Y1mqjyxOHIQ+V85KzQj970UFL+6HJ/skS/2Q081klctY0b+cQXT39iGAEVEoykXifFrkC9PDty2IbuyDJ31PJb/UX64WbxUB99ZiDc+V2tahufWLpbf+/oE033lyUPxKexe/QJ2OU3j/yRAAj8tAmfXoey9n6P9b9bB5/xYlB1fKx7+1fCJyUK78+JJOnEU1oo+VUx8+0N5eAk08nC10iShfB/Ew6p6uPY8D/P1L6P90xMkbEWE1ic7UHHzffU56n6OdhHxaK+u8xIvVUWOeMzskQJLJMRwCXwezYHiLfVJHeUZz6tRNu6P/0g4oO/b0B1bITY4sv3nEupx3wJTSIAE2jgBc34yYv+fAZuWJ2HxuXF4Lu0NvPruSiS8lYmHi4vxzT+O4qC56vpXnPZnJIcvwpsfROFM0SlkHz8IBLoA+iYbhzrF4W85wego67Fy334OL6Sp/pPGXUrF2xKx5s7F+GtqOM6cM+KgzBcl2MqDw4iN/282AhbOwV8/mgNvcwmMaQswaZ9zPWqdKkSIbciIxu//th/3borFo69k4KWnu+L3Ccvx/hS5qJfKpmofvozYP8nGFu5aL9yIhQsCsXyezG0viEep6CCysgswUBV2jqM434ig2ZuwrZMCva4IGQtkHn6J4Yr5ScJQvwhz39qPxSKoimT91rx/5cpPHCUi9pU5WBwvu2svlblticxl18ZioWwM1xRvd127Uue9ut94g33dc5s9VIX+4mLEDTYjdfk8LHv32DWvdtvsWLBjJEACbYOAJgI+z8yELXkULGfbRpfYCxIgARJwR0DdFj1tHvDc6IU45FaVuCvN8z8lApfPY3WtUjt3CMlxkUi+Vu2jXSRAAiRAAiRAAiRAAiTQJAF/RP/xL4jp7brOSTw6+5bh0UV73Hui6tQbPFm2qn+ojtvsbAZeeDLxRxCOl8fmJtFcIxnavrC6RkDTDBIgARIgARIgARIgARK4dALF8ptcY5By6RXYS+avm4rIdS2sxOPil8dmj5u7yhnbfijgVQbM5kmABEiABEiABEiABEiABNo+gcuzK2Db58QekgAJkAAJkAAJkAAJkAAJkIBbAhRWbtEwgQRIgARIgARIgARIgARIgAQ8I0Bh5Rkn5iIBEiABEiABEiABEiABEiABtwQorNyiYQIJkAAJkAAJkAAJkAAJkAAJeEaAwsozTsxFAiRAAiRAAiRAAiRAAiRAAm4JUFi5RcMEEiABEiABEiABEiABEiABEvCMAIWVZ5yYiwRIgARIgARIgARIgARIgATcEqCwcouGCSRAAiRAAiRAAiRAAiRAAiTgGQEKK884MRcJkAAJkAAJkAAJkAAJkAAJuCVAYeUWDRNIgARIgARIgARIgARIgARIwDMCFFaecWIuEiABEiABEiABEiABEiABEnBLgMLKLRomkAAJkAAJkAAJkAAJkAAJkIBnBHQ33XSTZzmZiwRIgARIgARIgARIgARIgARIoEECXt1vvKGywRSeJAESIAESIAESIAESIAESIAES8IgAQwE9wsRMJEACJEACJEACJEACJEACJOCeAIWVezZMIQESIAESIAESIAESIAESIAGPCFBYeYSJmUiABEiABEiABEiABEiABEjAPQEKK/dsmEICJEACJEACJEACJEACJEACHhGgsPIIEzORAAmQAAmQAAmQAAmQAAmQgHsCFFbu2TCFBEiABEiABEiABEiABEiABDwiQGHlESZmIgESIAESIAESIAESIAESIAH3BCis3LNhCgmQAAmQAAmQAAmQAAmQAAl4RIDCyiNMzEQCJEACJEACJEACJEACJEAC7glQWLlnwxQSIAESIAESIAESIAESIAES8IgAhZVHmJiJBEiABEiABEiABEiABEiABNwT0LlPupZTFGjvz4LvzVkoXRUPa4XTVgW60Tlof6u+vvFfLsH5NzdA92gedCeG4eKBopo8ulHweXYKbH8dBcvZEHhP3wmlqyO5zAjrZ6tRlr4VNpt6rk66eurMOlxYswT25HqHAk1IPJShEdB2DoCXzQTrgVkozchy5AyAZsAsKL8eBq2/pKvtHX8X5ozXYS11ZAlZC79Bebiw7nVU1qu/gRPdJsAnYgp0NxrgpTPD9p91uPj2CrG/EduljY5jh1VVZjOj8kwOzGnxKDcWQTMkHb4/fxsXNm6o3f71M+A7dRDKVz2O8ptcyttrMaN8a3+UHQtqgmcD9vMUCZBAswjYlF6wtu8Cm8YCjeU0tBdOQ+PRxaJZzTAzCZAACZAACZBAIwRap7DSDEK73iIYKoah3U0KrCfNji6aUbG9P0p2KDVdvn4C2sc8CGt6HVHQCBTYilC+KQJlUq+XiBTlN/OhFOWJGCuoKuWSbj8hQsTtYYhH+/v7oHzHZJR9aQT8+oiA+sGRXQ9t+Aa0D/kalg+c6f2hGz4f7Sd2xcV182G1uK254QTvCPg8OhNeOfEo3ZInEy0DtDf9XGx0ZG/E9krj6yhNXg2bzgDd0D/B5+FZsK0W4fpFFmyDIqDz3YByp9iT6rxuHg6NcQcqHOeqy6tNuTJpimfDPeFZEiCBRgjYOoxA6c8jcdG/L8q9veU7dx5aqzes7eTvyvNody4XPoXb0OG/Ry+jyFIw9MU0PF36HB595ZA8Pql96B9dj/cHbMQ9z2Y0K62Rbl6GJAVhYvOcoqkY87rjGn4Zam2qCiVyFT56OBcPPLEReHAVto3Jw9QnklFgbaCkNghxW1ai4ytjsHBfXaoN5L8Mp1ztM12G+i5LFVeBw2Wxm5WQAAmQgINA6wwFvGkUtOd3wny4CLpbhtUfTHVSb38FQHfPFHh9tgSWwmberBx1VH67DpZDRmh/2ad2O9VtNF6vpkd/aL59F5aTx1BZYULl9zmokL/th/8UKAPMsGyaCctxSbdI+tkslL83GebSUVDu7Fe/b02d6ToIWk0OLPtFDJXJ7bL0GKzH0mt709zaXoZKNc1SgIo9b8Pq0x/a66XBMyKevu8DXc8Al9aDoAsOgvVouosXy1G+IaHZFM+m+sV0EiCBKgLeYTjf9y2cuX0mSgP6oxwn0PHI/+KGrEj87JNw3PDpXOi/s6CicxhKA5fhTNifUOJ/g2f0lKFY9NFmTAt0zS5i6g+Z2PxkkJw0IzdpKmYn1xdVnjXQ9nIpgeGIS9yMzI/2Yu9eeWWlIWG4y8M96bIpYymmLnivYVHVHCSBIzE3Nhz+zSnDvCRAAiRAAleMQCsUVhIGeMsgVObLZP9zEQ+Bo6CTB7QNHV49JcSuWxbMe3IaSvbwnNwgdfKyNC6g3FVmK/4alYZH4H1j/fBETUgENF++i/IzdesWYXMwD5qe4hFyV7G789+fFI/TIHjfGuIuh4fnpc8aCQm0h1keQ8XxImiDh8HLWVofgXb+R+3nm3e0jGfz2mJuEmhbBGxdZuC7gQkos6ahS95m6DSn4fd5HDoWfQUvLz/YtOJJLsuF35E58CvxhvabOejyf6dhCV6L4l+NgLX6C3zpXMyFBSgovvTybapkr/FI+mscDAdexrgH7sJdd8lrdCzeya9zTS81ouBUy/1CiiEM4XcGwUfGmQcJkAAJkMC1R6DZ8/ar3gWdTOgDJVTvmIR0nFU9KYPEk1JftEA3DN4Rg2DNWNH8cDrXTnYeC2/RKBVHLlGcHV+Ci58p8I6RdUqRE6DxcVYua6+6BMhapqMNrpuqLDaiUi9rpJo7Que3ytqoHHjdvxUdxs+Hzr8BNk0OYgC0dz8C7bc7YP2+KrPtqIjYHrJOzCFiq8IA06vDAJus0pmhpTw9bogZSaAtEZAQv24LUdwnDLrjM9Alfwt07fvCUpYN3x/UeOFeOD9gOwrveh0X2svbyhPoUHgCFZ16Q1u4DF32L4W3/hkU3/obVLRoUq6G1WVi2wzVeyVHpzBMW5OGzN1pSNu+HnMGulxvGkvThyImcRvS3lfLbkPSk2FQS6rhafu3LMfcpauw6i+bpc5VGN+rtvcHWgNiNu7FqjHOthSEzpP2nw+FfnAckrbL3+9nYu/u9YgbXPf6pyB6zX6setBZp4KRq/YjaUzVeyU4Gos2quVVviyCAAAgAElEQVTFrtT1mDu8Md+QHiNjp0O/Yzae23AIxU4tdU6EZ2Htz57ar71vjLf3EfJv6KTl2Lw7E5liZ+ZfYhDkOia+IYh5Qxg/P7SWZ0oZGIc3X7wXhl4TsP5vmxE3UGxWOf5ROIm9aVJf2htzEd69dtvqO7Vfy7dInlTp1/vLEe3olrcSiCek/Lb3xdO2OwkxfR1c3NWrH4lVe9cjpltVG4ZJm3E4Ja7Kfm0I4rZvQ1xwTfvK8EXCcS6Cnf3zFyGalWRvP3iShEfa7d6LzC0JCHfUWV3a7j2VtpxD4PSm9nC0HZmA9dIfdazTtizCyFpe1voMeIYESIAErgSB5k7br4RNjbfRU9b6fP+hY8JfgPKjBRIOGFHjSbGXFtFydzzanV0N8xfN8KhU7z4RgHZjc+A39yg6/vYRVKbL+qdaTxsd6bPz4Ccv33sGNWKzbEaRPgoX1LVL3Wahw8ytNd4rod/o+vKGd8NopC01SdaefS6bY6yS8MLSQfCZuhM+/V29V+5t97pxJjqofXohCz7+H8oarXU1IYRnPkTFeVn/FahODWQN1q8kDDDfNQxQnpQ7y6t1PLsW7apFZFM8m+gSk0mABOQLVuOab7bjyWaBl3qxcanDLVJtMJ6QiX3mR85XGhbf5xoG7CypR/jsRYgqWoZx90YicvwyFHQyoMrKJtKe/z2GHpmHMQ9EYkT0qzA+NAdPOCfkPTqiYOVTeOrJcYj9uDumTxkiV3SXw2pE6q6j6Bd+b5XwUPohanAJUt+V8ERZV5Y8XWx5YATGvQU8NinKIWbc9rYmQQlF3MJoFK94VMpLHfGHMDA+DmF1dF11AWk3LOQMsv/uCO32oAk1iz5yMZY/XIZ1MSMwQuyMnPsejM51VyIao5e+gqivluLJl/fA1TFo3peIiQt2w3hiAyY9NA6J+xSEPy8i6cIaTIwSe+8dgxfyB+LFedF1QgUVDJkUh8B/xCJS8o2Ifgm7zzmM7RWEsuSJMg734Hd/N2ByjMpaxs5dvaZs7DnSE2F2weqPoYM7osg3FENUUdR9IMJ0+5B1vAaE+dNd2KMdglF9q84Z7gtH0L4UpErHLPkbETtatfsBJJ6OwOQxDrHuCcde07BoioLkGHWsIxH7gQFxsSM9H2tP2mAeEiABErgEAq1s8wq9iKhB8BLPSYcXZ9V01/IDdD5bUV7mOOU/WcSECebk+htWVFbIhhQ69abgKrgU8Qw5w97UOkwoTxsL85k+8I6Mh7a7bBH4heuiZ0f6KccjSkvT4q3y2w0oW5eOcnWzigdnoiJJdun7Xnbc8+8p7R2sN3Re/uKtMuXJmqd6SZ6dOC9rtbbLeq78JfAdvQDtTo1Fud375N72ysINIqZ2yKYUs+Bzp6yvEmFkczIVGytEpPpKOCCMsnatm4QBvle731Xl33bYLDyryzbF07MuMRcJ/HQJWKA9PRf+5XE4F/w6ijutxXVffw5vn9EovW4t9N+fgN+B0fDVnIdGnaR79cKFbr2g/W410HkKzt48Gtazr8P/32nQNvo0R8pa8/HGb8fhz6ectNU1VmmYXhe+EoKhA0zIeNohAGQ9Z2rGMUxWl4Y2mtZPJuRB6Bn6CrY9VFWpoijINTgUTH42dn9Tdd6YL0aEdrULK9fguuIPU3FwShQi/FOQcstIhBlTMVGymn2LoDwYh7nBBhh+ZYCi7YgATz10gcMwJFDKzN+EcEdfFe9TMPjWabyagzd86hpWnebuDxE54f1g3PIQMhx9NJ+TEEGtKlyvQ7+nVyLsyzWYuiijlqhqsDYRdkMHmpA6TfjbhZkJh95JlbrD0E9JQUY1MDPy9x2EfmYCEkwb8c62DBTIhkN22vkZSPm8KmP+oXzgEWHdRL1Z2UcxbeBAKNnXYYiSgT9/OkTs0CNVCUPHA8nId92cw5yLFDFkeVQoEj8vRvj9AdizMts+lsbTQNRE8WYFGRAU4g3/4gCxqel7qWq2/53Sx24GBCTLpiTqCa30pjDAPtamhjYHUfPwIAESIIErQKB1CSsf8Vb1KEDZn0QkVIerB6FdzFbobg5A+SH1oizvIx4H9s1A+dn6BG3fm6Dp3kcSXIRS1z7QlH0NW/WOd3LZl5j4SllLYH4vAO0ny66A/x4Fs9F5p3Kkn3e91ddvq/6ZIlj/KRtJDAiRDSZkO/L8HFQ+/gjadRZRWMtW2Rji9v6w/VvEV/1KmnFGxM3xragwrZCt3hWHsGrEdtsPqDQdg23/LJR12im7GU5AxaYacWrLl3DA8RKK2Vd2MzSmo6yal8Mke3nhVs/CpnjWK8ATJEACDRDQFCdKWF8uzveOw3e3i2fe1hllfRPh9cVS+BV/ZRdVlT5huNB7Ls53tECHBJzpdhodTsxAJ3UdVgN1Xvopmcx6W1B2waWG6jtKY2mS31qAlGfHIFHm8q6HEimejAYMqreM9lwGdh6Iw/j7gnDmln44lbYMxbKjXMyaN8Xbsw5vfJiFnZ+WITimgcrqnPJx2qxOzs9lYWH0POzx5NJuzsfRrwwYeqcBOCE7vnp4+CjSmwa3ey2D6UwJDDf1hKGDCA9Pl2TVFRLVPz9SY5Bx21MYcyQcDz8moXjbo5H826lIkWSLlK3m7ainmrWbeouzc2F8PAxD/kdE2L/WIPWIPx67bwiGyW6yB3cdrLcbZP6O3Sh5LQr9ehchQoTYggMCt5uEJibHwLxFyr+biozi7kiwK70GjgZmKT7y1M98IBFjntpVr70GauApEiABErhiBFpVKKBXbxFWphxYa91wZKOH/ALZ0GKUfdLg1Tde1hKkw7xfwjM0cqV2vuxIJUzuiAib3uKRCe0nnitJ7xwBJWKU7M+wFdaGVMz3G2DOMaPd/TOhcaVVr+6Gx0yj2tNXvGze6kQjCNqBw6Aplp361Jvft/L7WJ/LU7pHV8u28RIGIXV6dZYt5B9eB8VHdj1U+1B9+IhXzdmfhtuyn+02GUrYKGj8xCunkd/IChkr26SfhNV1g4wmbZff2tqzAhXdZkIRwVp9FEo4YGl/eA/sU2c3QGcOD2x0x7ORLjGJBEjAhYB4AfyOjEPXvNXwlZ+BaCfrq0pufQunh6Xhv3dn4PTgpTB18YZO3W7962XomvNM1eYWlxui+SjyjxsQFh5U5f1QghA1RH4rT22nibRDx7pi5OPO3e0UBA0OhcFTz5K9H2Zk79iDgPA4RPc+KF4RuSnoAtEnyIjda5Ox61NRbL1DGvRWGQtNCAwOrrK50xCEBTtm9KdyxS8/DNGR4rVSm1CkbwOrwtP8g0MRVLVAyoWiEe+t3Q3DlJVIiAypDkNTuocitIdLtlp/yq6K/ziGng89gVBHffpu/o5QRzMKNvwOC48MwaJV0xCqesrqHhJxAd/rqkL9zAex55AeUY8712LJ2q1HIuD/ryzU3bHdXzxxOJGB5AXPYWOhhDDe4k7FSINN1VuYjdxz/TD54QAckjBI875cnAqagOjAfOyp27Bq/6ldSC8MQ0zsMJR9kGL3aCm/CEZwaTY2rJNQwUMmBImHsZ5FFUYUnxNv1i1VoJS+4qVyrLcyHjiIogHReMw5dt3CasaxLjO+JwESIIErSKCBZ0FXsPVmNSXhZ30a9uJUfvExbMPvg+56EVjhIlzkOuwbP6F27cYVOK/+wG7hCpTJ71wpw9fBL0oyyg/yVsh27BczctxYI2Js/xKU37YaPgN2oHS/ZBPB0k5+aLids4QtB2VL5UdyG3jUWmmRHy0OXw1ltLQlIYNW1dOzVdZb2cvK+7QJuDhYfkA4ait8rlftKUKlhCpWfiGbWrgIPS/DDHRImFFtozU9AqW5Ll43Z4ps2e7VZ5as+1ohQtMEW3GebN8uP/R73pHBne3VNTv+KBNh99EodAifBe0p+S0re9/UcECTCDf53a0GdgOsa6Pt08dxIcP5m13OBurybKAPdW3hexIggXoENOcz4feFvETK2Hx+IT+PUPUDwV6W76C7IN6r+q7jenW07EQxNr6ciOAlK7FpiBFFpSXILzwFueTJ0XhayssLEPSHufjbR3Pxg9WMEgkhe2HfoWaZY96Xiux5b2JI9kTssXvP9yHl3fFIeHUz+hUWoUhC7Irqel3U7eKTE3FwxWJsekNsFg97yX8d7qnSPUhMSMHieNkMYpp63ZIQunfmIfeACMZ5ryFs10OYuqn2doimj+dhUoKEHk5biffnSey02p7pJDYsmIo6zrjqvhk3zcMCwyIs3p4pkRFmmI8nIzbeGQ5egj1LYtFx2Xq89poZv/2dhNa5RAaYD2VgV+lyvPZBMFISpiJx0TwEvTRHNsKYA7M8rDMfT8W8Bbvkyu96KOj58Eosuk+Rn/GQPAVr8JIaJzjcHW4J72ysXvE27tkHTL/vIF5WO2kVoVW0GHMqNmBf3SgGexOyJu5DI6Y/AyxLqPLsmQ+9h43GV7D4nWAYzxaj6EJRfc+TtLMhKQOvxa7H+jFFKDlXImPqsPlwIl5IWo7fv/YRxpsl5lzW3e1aMhW57rrE8yRAAiRwhQh4db/xhh/99nuF+tJ2mpGd85SHZfMN7xyYt4so+tbTmJC2g4A9IQESIAESIAESIAESIIHWRIDC6jKNluaOtfC5/ee1azOJd2qTrJNqKMSwpe0aZqF9pOyG6BqeaDuJ8i0zHWupWtoAy5MACZAACZAACZAACZAACXhKgMLKU1LMRwIkQAIkQAIkQAIkQAIkQAJuCLSqzSvc9IGnSYAESIAESIAESIAESIAESOCqEqCwuqr42TgJkAAJkAAJkAAJkAAJkEBbIEBh1RZGkX0gARIgARIgARIgARIgARK4qgQorK4qfjZOAiRAAiRAAiRAAiRAAiTQFghQWLWFUWQfSIAESIAESIAESIAESIAErioBCqurip+NkwAJkAAJkAAJkAAJkAAJtAUCFFZtYRTZBxIgARIgARIgARIgARIggatKgMLqquJn4yRAAiRAAiRAAiRAAiRAAm2BgO6mm25qC/1gH0iABEiABEiABEiABEiABEjgqhHw6n7jDZVXrXU2TAIkQAIkQAIkQAIkQAIkQAJtgABDAdvAILILJEACJEACJEACJEACJEACV5cAhdXV5c/WSYAESIAESIAESIAESIAE2gABCqs2MIjsAgmQAAmQAAmQAAmQAAmQwNUlQGF1dfmzdRIgARIgARIgARIgARIggTZAgMKqDQwiu0ACJEACJEACJEACJEACJHB1CVBYXV3+bJ0ESIAESIAESIAESIAESKANEKCwagODyC6QAAmQAAmQAAmQAAmQAAlcXQIUVleXP1snARIgARIgARIgARIgARJoAwQorNrAILILJEACJEACJEACJEACJEACV5cAhdXV5c/WSYAESIAESIAESIAESIAE2gABCqs2MIjsAgmQAAmQAAmQAAmQAAmQwNUloLu6zV9q6wq092fB9+YslK6Kh7XCWY8C3egctL9VX7/iL5fg/JsboHs0D7oTw3DxQFFNHt0o+Dw7Bba/joLlbAi8p++E0tWRXGaE9bPVKEvfCptNPVcnXT11Zh0urFkCe3K9Q4EmJB7K0AhoOwfAy2aC9cAslGZkOXIGQDNgFpRfD4PWX9LV9o6/C3PG67CWOrKErIXfoDxcWPc6KuvVX/dEHftKjaj4bIXUt9Nhv+S/fhS8w6egXWAQNN5AZXEeyj9ZAvPnxxyVCd9I4TsgoOp9hQm2L7eibMcSWP2XwG/iWHjVbdZ2EGWvjkW5qW4C35MACfzYBGxKL1jbd4FNY4HGchraC6ehafpi8WObxfpJgARIgARI4CdFoHUKK80gtOtthq1iGNrdpMB60uwYNDMqtvdHyQ6lZhCvn4D2MQ/Cmr7BA1HiKGYrQvmmCJRJvV7dJkD5zXwoRXkixgqqMrik20/YnO038NkxxKP9/X1QvmMyyr40An59RED94MiohzZ8A9qHfA3LB870/tANn4/2E7vi4rr5sFoaqLOpU9X2QewfBWX0EvhcOInSvSKcVB6TZ8HrixW4mCRiq1QPTc8p8Llf7PAei4t5jj6q3fr0cVz4KE9sHgTvB1dIP07iwtZ4nF8wH9CoIjYL3v+dgNJPpUxjDJqyl+kkQALNJmDrMAKlP4/ERf++KPeWJyS289BavWFtpz4tOY9253LhU7gNHf579DKKLAVDX0zD06XP4dFXDqHulU//6Hq8P2Aj7nk2o1lpze58swooCBOb5xRNxZjXa65vzariEjIrkavw0cO5eOCJjcCDq7BtTB6mPpGMAmsDlWmDELdlJTq+MgYL99Wl2kD+y3DK1b5r5nnYVeBwGVCyChIgARKoJtA6QwFvGgXt+Z0wHy6C7pZh9YdTneTbXwHQ3TMFXp8tgaWwmTcrRx2V366D5ZAR2l/2qd1OdRuN16vp0R+ab9+F5eQxVIrnp/L7HFTI3/bDfwqUAWZYNs2E5bikWyT9bBbK35sMc6kIojv71e+bp2fs9kl9326A+Z/HoA0aJF4mvfCYBc2p+biYtgG27+V2ajHCdmw+SrenQ3NPPHQ+dRpQ6zFlwfKPLFTeKH2xf2IcfJ1ZKao8HRXmI4GWE/AOw/m+b+HM7TNRGtAf5TiBjkf+FzdkReJnn4Tjhk/nQv+dBRWdw1AauAxnwv6EEv8bPGtXGYpFH23GtEDX7CKm/pCJzU8G2b/7uUlTMTu5vqjyrIG2l0sJDEdc4mZkfrQXe/fKKysNCcNdHu5Jl00ZSzF1wXsNi6rmIAkcibmx4fBvThnmJQESIAESuGIEWqGwkjC1WwahMn8HKj7Pgi1wFHTygLahw6unhNh1y4J5T05DyR6ekxukTl6WxgWUu8psxV+j0vAIvG+sH56oCYmA5st3UX6mbt0FqDiYJ56k4bgcA+Ql9ldWSBu6YdAFmlCxL72+9+7LnagoFW+ZeAAbPMQQL6mD0UUN0uFJErgiBGxdZuC7gQkos6ahS95m6DSn4fd5HDoWfQUvLz/YtPI9LcuF35E58CvxhvabOejyf6dhCV6L4l+NgLVeDG/zzTYXFqCguPnl2mSJXuOR9Nc4GA68jHEP3IW77pLX6Fi8k1/nmi4h2QWnWu4XUgxhCL8zCD4yzjxIgARIgASuPQKXY95+ZXuli5C1QRKqd0xCOs6KuPp+EHQ964sWVUR4RwyCNWPFpYXTOXvVeSy8Q4CKI5cozo4vwcXPFHjHpMM3cgI01R4hWXvVJQCVZ442KFYqi42o1Bvg1aIR0sOrxwxZvxWAisPicdL3hEZ3EtZ6Qk46azsqHiyx6XpD/fH07od2gwaJZ2tHzTqt+rl4hgRI4EcjICF+3RaiuE8YdMdnoEv+Fuja94WlLBu+P6jxwr1wfsB2FN71Oi60l7eVJ9Ch8AQqOvWGtnAZuuxfCm/9Myi+9TeoaNGkXA2ry8S2Gar3So5OYZi2Jg2Zu9OQtn095gx0uRY3lqYPRUziNqS9r5bdhqQnw8SfDqjhafu3LMfcpauw6i+bpc5VGN+rzsMerQExG/di1RhnWwpC50n7z4dCPzgOSdvl7/czsXf3esQNrntvUBC9Zj9WPeisU8HIVfuRNKbqvRIcjUUb1fJiV+p6zB3emG9Ij5Gx06HfMRvPbTiEYqeWOifCs7D2B0Ht1943xtv7CPk3dNJybN6diUyxM/MvMQhyHRPfEMS8IYyfH1rLM6UMjMObL94LQ68JWP+3zYgbKDarHP8onMTeNKkv7Y25CO9eu231ndqv5VskT6r06/3liHZ0y1sJxBNSftv74mnbnYSYvg4u7urVj8SqvesR062qDcOkzTicEldlvzYEcdu3IS64pn1l+CLhOBfBzv75ixDNSrK3HzxJwiPtdu9F5pYEhDvqrC5t955KW84hcHpTezjajkzAeumPOtZpWxZhZC0va30GPEMCJEACV4JAi6btV8LAem30jIDu+w9h/V5NKUD50QIJB4yos5mCCIS749Hu7GqYv3DZpKJeZXVOVO8+EYB2Y3PgN/coOv72EVSmy/qnWk8bHemz8+AnL997BjVSs2xGkT4KF5JXw9ZtFjrM3FrjvRL6jXqAGt4No5G2HEkasW+82P5iHjqMvg+V/5iFss9lfVdTo6225xLWp7ljtb1/HWe/Dt1XEj748cGm22YOEiCBH4eAV41rvtmOJ5sFXurFxqUOt0Zqg/GETOwzP3K+0rD4PsdGNrUK6RE+exGiipZh3L2RiBy/DAWdDKiysom053+PoUfmYcwDkRgR/SqMD83BE84JeY+OKFj5FJ56chxiP+6O6VOGoJa0shqRuuso+oXfWyU8lH6IGlyC1HclPFHWlSVPF1seGIFxbwGPTYpyiBm3va1JUEIRtzAaxSselfJSR/whDIyPQ5gbJz6k3bCQM8j+u3PTHw/akCz6yMVY/nAZ1sWMwAixM3LuezA6112JaIxe+gqivlqKJ1/eA1fHoHlfIiYu2A3jiQ2Y9NA4JO5TEP68iKQLazAxSuy9dwxeyB+IF+dF1wkVVDBkUhwC/xGLSMk3Ivol7D7nsLVXEMqSJ8o43IPf/d2AyTEqaxk7d/WasrHnSE+E2QWrP4YO7ogi31AMUUVR94EI0+1D1vEaDuZPd2GPdghG9a06Z7gvHEH7UpAqHbPkb0TsaNXuB5B4OgKTxzjEuicYe03DoikKkmPUsY5E7AcGxMWO9HysPWmDeUiABEjgEgi0ss0rZI2QhAF69YhAhxdn1XTX8oOsDdqK8jLHKf/J8Olvgjm5/oYVakicl069KbgKLkU8QxLmVr27oAnlaWNhPtMH3pHx0HaXLQK/cF307Eg/5XhEaWlavKlrncrWpaNc3aziwZmoSFohHqIiaPx7ii31BYuXv3irTHmovBRxpW5esXGYffONWodJwhJtsjuhPAGsqPNEFRrZIbCz7P73z5q+2A7Fo/QfJuiGyuYdvwyC114RgpdizyV8MFmEBEjAlYAF2tNz4V8eh3PBr6O401pc9/Xn8PYZjdLr1kL//Qn4HRgNX815aNRJulcvXOjWC9rvVgOdp+DszaNhPfs6/P+dBm2jT3OkrDUfb/x2HP58ytm+usYqDdPrDogSgqEDTMh42iEASo8hNeMYJqtLQxtN6ycT8iD0DH0F2x6qqlRRFOQaHAomPxu7v6k6b8wXI0K72oWV69Ws+MNUHJwShQj/FKTcMhJhxlRMlKxm3yIoD8ZhbrABhl8ZoGg7IsBTD13gMAwJlDLzNyHc0VfF+xQMvnUar+bgDZ+6hlWnuftDRE54Pxi3PIQMRx/N5yREUKsK1+vQ7+mVCPtyDaYuyqglqhqsTYTd0IEmpE4T/nZhZsKhd1Kl7jD0U1KQUQ3MjPx9B6GfmYAE00a8sy0DBbLjrJ12fgZSPq/KmH8oH3hEWDdRb1b2UUwbOBBK9nUYomTgz58OETv0SFXC0PFAMvJdN+cw5yJFDFkeFYrEz4sRfn8A9qzMto+l8TQQNVG8WUEGBIV4w784QGxq+l6qmu1/p/SxmwEBybIpiXpCK70pDLCPtamhzUHUPDxIgARI4AoQaF3Cyke8VT0KUPYn1229g9AuZit0Nweg/JB6UZb3EY8D+2ag/Gx9guqGDZru6kYULkKpax9oyr6WHfKc+eWyLzHxlbKWwPxegOyiJ8Li36NgNjrvVI7083WES/3m6pwpgvWf6bANCIFWhFx5fg4qH38E7TqLKKxlaxB0t/eH7d8ivpqssxkZLFmo+E88vH8dAXNqeu2CNz0i4jQP5v+ofXJMcNTNNGSzjfLU5+E1eR18wmR7+0+b93S2GdYxKwmQQBMENMWJEtaXi/O94/Dd7eKZt3VGWd9E2eVzKfyKv7KLqkqfMFzoPRfnO1qgQwLOdDuNDidmoJO6DquJ+puXLNcJbwvKLriUqr6jNJYm+a0FSHl2DBJlLu96KJHiyWjAiHrLaM9lYOeBOIy/LwhnbumHU2nLUCw7ysWseVO8PevwxodZ2PlpGYJjGqiszikfp83q5PxcFhZGz8MeTy7t5nwc/cqAoXdK+PQJiQjw8PBRpDcNbvdaBtOZEhhu6glDBxEeni7Jqiskqh8Q1hhk3PYUxhwJx8OPSSje9mgk/3YqUiTZImWreTvqqWbtpt7i7FwYHw/DkP8REfavNUg94o/H7huCYToDDu46WG83yPwdu1HyWhT69S5ChAixBQcEbjcJTUyOgXmLlH83FRnF3ZHguO3Uw9jALMVH6wPzgUSMeWpXvfbqlecJEiABEriCBJoKDruCpjTdlFdvEVamHFhr3XBko4f8AtnQYpR90uDVV4SDPh3m/SIAZEvw6pe9etmi/YgIm96z4BPaTzxXkt45AkrEKODYVlgbUjHfy656OWa0u3+mY0c8h5316m7Yfo1qT1/xsnmrE40gaAcOg6b4WNVvb30rv4/1uTyle3S1bBsvYRBSp1dn2UL+4XVQfGTXQ7UP1YePeNWc/Wm4rabPiicrYy0qb14C3/Cx0PhKfXIz1ITMh+/oYbDJerSKhmY18htVlg92wutOCa+8vulWmIMESOBHJCBeAL8j49A1bzV85Wcg2sn6qpJb38LpYWn4790ZOD14KUxdvKFTt1v/ehm65jxTtbnF5TbJfBT5xw0ICw+qehSjBCFqiPyOntpOE2mHjnXFyMedu9spCBocCoOnniV7P8zI3rEHAeFxiO59ULwiclPQBaJPkBG71yZj16ei2HqHNOitMhaaEBgcXGVzpyEIC3bM6E/lSuzAMERHitdKbUKRvg2sCk/zDw5FUN3lWjDivbW7YZiyEgmRIdVhaEr3UIT2cAdbdlX8xzH0fOgJhDrq03fzdzzKMqNgw++w8MgQLFo1DaGqp6zuoW5C5HtdVaif+SD2HNIj6nHnWixZu/VIBPz/lYW6O7b7iycOJzKQvOA5bCyUEMZb3KkYFW0T9RZmI/dcP0x+OACHJAzSvC8Xp4ImIDowH3vqNqzaf2oX0gvDEBMrURQfpNg9Wjf4dsYAACAASURBVMovghFcmo0N6yRU8JAJQeJhrGdRhRHF58SbdUsVKKWveKkc662MBw6iaEA0HnOOXbewmnGsy4zvSYAESOAKEmjgWdAVbL1ZTcnW6X0a9uJUfvExbMPvg+56EVjhIlzkOuwbP6F27cYVOK/+wG7hCvmhWwXK8HXwi5KM8oO8FbId+8WMHDfWiBjbvwTlt62Gz4AdKN0v2dQ1TPJDw+2cJWw5KFv6OMobECWVFvm9p/DV8ltS0paEDFqN6SjbKuut7GXlfdoEXBwsPyActRU+16v2FKFSQhUrv5BNLVyEnpdhBjokzKi20ZoegdJcF6+bG+vrnS5+HaVvSriM/ECw79NLRKxJ+N8Z+YHg1Amy5Xsj9Qm/suPpaB8xFhVbtja+NqxeozxBAiRwuQlozmfC7wt5iZSx+fwCVp+qHwj2snwH3QXxXjUV8tdig4qx8eVEBC9ZiU1DjCgqLUF+4SnIJU+OxtNSXl6AoD/Mxd8+mosfrGaUSAjZC/sONcsi875UZM97E0OyJ2KPPdpgH1LeHY+EVzejX2ERiiTErqiu10XdLj45EQdXLMamN8RmkxEl/3W4p0r3IDEhBYvjZTOIaepvDUoI3TvzkHtABOO81xC26yFM3VR7O0TTx/MwKUFCD6etxPvzZGcitT3TSWxYMBV1nHHVfTNumocFhkVYvD1TIiPMMB9PRmy8Mxy8BHuWxKLjsvV47TUzfvs7Ca2rjqQQiw5lYFfpcrz2QTBSEqYicdE8BL00RzbCmAOzeKrMx1Mxb8EuCQp0PRT0fHglFt2nyM94SJ6CNXhJjRMc7g63hHc2Vq94G/fsA6bfdxAvq520itAqWow5FRuwz8XWmtplTdyHRkx/BliWUOXZMx96DxuNr2DxO8Ewni1G0YWi+p4naWdDUgZei12P9WOKUHKuRMbUUevhRLyQtBy/f+0jjDfLGgBZd7dryVTkuusSz5MACZDAFSLg1f3GG3702+8V6kvbaUZ2IlQeFu+Qdw7M2+NR/q2nMSFtBwF7QgIkQAIkQAIkQAIkQAKtiQCF1WUaLc0da+Fz+89r12YS79QmWSfVUIhhS9s1zEL7SNkN0TWY03YS5Vtmoty+YyIPEiABEiABEiABEiABEiCBK0WAwupKkWY7JEACJEACJEACJEACJEACbZZAq9q8os2OAjtGAiRAAiRAAiRAAiRAAiTQqglQWLXq4aPxJEACJEACJEACJEACJEAC1wIBCqtrYRRoAwmQAAmQAAmQAAmQAAmQQKsmQGHVqoePxpMACZAACZAACZAACZAACVwLBCisroVRoA0kQAIkQAIkQAIkQAIkQAKtmgCFVasePhpPAiRAAiRAAiRAAiRAAiRwLRCgsLoWRoE2kAAJkAAJkAAJkAAJkAAJtGoCFFatevhoPAmQAAmQAAmQAAmQAAmQwLVAQHfTTTddC3bQBhIgARIgARIgARIgARIgARJotQS8ut94Q2WrtZ6GkwAJkAAJkAAJkAAJkAAJkMA1QIChgNfAINAEEiABEiABEiABEiABEiCB1k2Awqp1jx+tJwESIAESIAESIAESIAESuAYIUFhdA4NAE0iABEiABEiABEiABEiABFo3AQqr1j1+tJ4ESIAESIAESIAESIAESOAaIEBhdQ0MAk0gARIgARIgARIgARIgARJo3QQorFr3+NF6EiABEiABEiABEiABEiCBa4AAhdU1MAg0gQRIgARIgARIgARIgARIoHUToLBq3eNH60mABEiABEiABEiABEiABK4BAhRW18Ag0AQSIAESIAESIAESIAESIIHWTYDCqnWPH60nARIgARIgARIgARIgARK4BghQWF0Dg0ATSIAESIAESIAESIAESIAEWjcBXes0X4H2/iz43pyF0lXxsFY4e6FANzoH7W/V1+/Wl0tw/s0N0D2aB92JYbh4oKgmj24UfJ6dAttfR8FyNgTe03dC6epILjPC+tlqlKVvhc2mnquTrp46sw4X1iyBPbneoUATEg9laAS0nQPgZTPBemAWSjOyHDkDoBkwC8qvh0HrL+lqe8ffhTnjdVhLHVlC1sJvUB4urHsdlfXqr3uijn0WE2xn8lDxz9Uwf3awTuYGON60BH4Tx8KrbrW2gyh7dSzKTZJw82r4je0Jy18jYCl0yeg3Gb7PxEPrkOuVZw+iPP0ZmI8bXTI10GZ1qgHaIfOh9OsPrV7GUFiUp45F2RcyVsKg49hhLvWYUb61P8qOmetayvck8JMjYFN6wdq+C2waCzSW09BeOA1N0xeLnxwndpgESIAESIAEfkwCrVNYaQahXW8zbBXD0O4mBdaTzsm1GRXb+6Nkh1LD7PoJaB/zIKzpGzwQJY5itiKUb4pAmdTr1W0ClN/IZL8oT8RYQVUGl3T7CVsjk3tDPNrf3wflOyaj7EsRGH59RED94GhID234BrQP+RqWD5zp/aEbPh/tJ3bFxXXzYbVcwvC72ucbBG3vR6BIO74/m+ki6KTehjh+GY/zC+ZLmipSs+D93wko/VT6Xd1HPXS39Efl94CuTz8RVnXEWkUOyv40BeU2EYz9l8D3QRG+r85EhbMfDbXp6KJm8OtoH3wUZZtGoeKsCV5dRWyihm2l8XWUJq+uErCNMb8EZCxCAq2NgK3DCJT+PBIX/fui3NtbvqPnobV6w9pO/q48j3bncuFTuA0d/nv0MoosBUNfTMPTpc/h0VcOuXw7q+jpH12P9wdsxD3PZjQr7cdlryBMbJ5TNBVjXndcw3/cBu21K5Gr8NHDuXjgiY3Ag6uwbUwepj6RjAJrA41rgxC3ZSU6vjIGC/c1cj9poOilnnK1T31edk0cV4HDNdFvGkECJNBmCLTOUMCbRkF7fifMh4tkkj+s/mCok277KwC6e6bA67MlIgCaebNy1FH57TpYDhmh/WWf2u1Ut9F4vZoe/aH59l1YTh5DZYVJBEkOKuRv++E/BcoAMyybZsJyXNLFu1R5Ngvl702GuXQUlDv71e+bp2ec9p0/BmvefJRu2gqIZ6xdZ5cK3HJ08HNmdRUxPhFoZzgJi3jcvG5+EJqGPkFqfosRtkPpsOq6wstVvrttU0TmL4NgO7wWFWdEgKqsvt2Jim9db/llqHT2y1MOzEcCbY2AdxjO930LZ26XByUB/VGOE+h45H9xQ1YkfvZJOG74dC7031lQ0TkMpYHLcCbsTyjxv8EzCspQLPpoM6YFumYXMfWHTGx+MkhOmpGbNBWzk+uLKs8aaHu5lMBwxCVuRuZHe7F3r7yy0pAw3OXhnnTZlLEUUxe817Coag6SwJGYGxsO/+aUYV4SIAESIIErRqChafEVa/zSGpJQslsGoTJ/Byo+z4ItcBR08oC2ocOrp4TYdcuCeU9OQ8kenpMbpE5elsYFlLvKbMVfo9LwCLxvrB+eqAmJgObLd1F+pm7dBag4mAdNz+G4bAP07dvSThB0NwU4TPWco2vfvHpLSGNhOiqOi+iBeAxvrD2BqMmrF4+VCK8vZZycIY1orE0zrMVF0NzyOLS+7mjyPAn8tAnYuszAdwMTUGZNQ5e8zdBpTsPv8zh0LPoKXl5+sGkh4cS58DsyB34l3tB+Mwdd/u80LMFrUfyrEbDWi/FtPk9zYQEKiptfrk2W6DUeSX+Ng+HAyxj3wF246y55jY7FO/l1rumlRhScarlfSDGEIfzOIPjIOPMgARIgARK49ghctnn7FeuaTjwmgRKqd0xCOs7KpP37QdD1rC9aoBsG74hBsGasuLRwOmeHOo+Fd4g4UI5cojg7vgQXP1PgHZMO38gJ0Pg4K5a1V10CUHnmaIMhipXFRlTqDfC6bCMk9X0voY3XGaoM8JRjrYEVD2CfPrAeTRfPUR7Kj4vmvG1Q7aHXDYLydB784vPQQZLKP5G8zhyNtimhnR/Hw1IWAd+ZO+ETNuwy9v2KfTrZEAn8SAQkxK/bQhT3CYPu+Ax0yd8CXfu+8n3Jhu8PapxtL5wfsB2Fd72OC+3lbeUJdCg8gYpOveVByDJ02b8U3vpnUHzrb1DRokm5GlaXiW0zVO+VHJ3CMG1NGjJ3pyFt+3rMGehyLW4sTR+KmMRtSHtfLbsNSU+GQS2phqft37Icc5euwqq/bJY6V2F8rzoPb7QGxGzci1VjnG0pCJ0n7T8fCv3gOCRtl7/fz8Te3esRN7juvUFB9Jr9WPWgs04FI1ftR9KYqvdKcDQWbVTLi12p6zF3eGO+IT1Gxk6HfsdsPLfhEIqdWuqcCE/XtaeOfu19Y7y9j5B/Qyctx+bdmcgUOzP/EoMg1zHxDUHMG8L4+aG1PFPKwDi8+eK9MPSagPV/24y4gWKzyvGPwknsTZP60t6Yi/Du9kZqHWq/lm+RPKnSr/eXI9rRLW8lEE9I+W3vi6dtdxJi+jq4uKtXPxKr9q5HTLeq6g2TNuNwSlyV/doQxG3fhrjgmqaV4YuE41wEO/vnL0I0K8nefvAkCY+0270XmVsSEO6os7q03XsqbTmHwOlN7eFoOzIB66U/6linbVmEkbW8rHUJ8D0JkAAJXBkCl23afmXMlVZ6RkD3/YewyhofoADlRwskHDCizmYLIlrujke7s7Jhg7rxgadH9e4TAWg3Ngd+c4+i428fQWW6rH+q9bTRkT5bBIS8fO+pIy5qtSebUaSPwgV1bVC3Wegwc2uN90roN7q+vOHdMDztTf186mhbHXd/jzjWqcJPvIM3HpVQRpWpCKEjWaiUerSuoX6yxsq8Tvq7ZhRKP/5aNgtZB++ujpt1U21acmB5OwIXPsiD18DV6DB5fi3vldeNM9HBwdzv2bVoVy1S63eVZ0igzRHwqnHNN9vxZLPAS73YuNThlo82GE/IxD7zI+crDYvvc3q6XUvpET57EaKKlmHcvZGIHL8MBZ0MqLKyibTnf4+hR+ZhzAORGBH9KowPzcETzgl5j44oWPkUnnpyHGI/7o7pU4aIr9vlsBqRuuso+oXfWyU8lH6IGlyC1HclPFHWlSVPF1seGIFxbwGPTYpyiBm3va1JUEIRtzAaxSselfJSR/whDIyPQ1gdXVddQNoNCzmD7L87Qrs9aELNoo9cjOUPl2FdzAiMEDsj574Ho3PdlYjG6KWvIOqrpXjy5T1wdQya9yVi4oLdMJ7YgEkPjUPiPgXhz4tIurAGE6PE3nvH4IX8gXhxXnSdUEEFQybFIfAfsYiUfCOiX8Lucw5jewWhLHmijMM9+N3fDZgco7KWsXNXrykbe470RJhdsPpj6OCOKPINxRBVFHUfiDDdPmTJAzfnYf50F/Zoh2BU36ozhvvCEbQvBanSMUv+RsSOVu1+AImnIzB5jEOs1xR3/1evaVg0RUFyjDrWkYj9wIC42JGej7X7mplCAiRAAi0i0Mo2r1A3ThgErx4R6PDirJqOW36Azmcrysscp/wnw6e/Cebk+htWVFaI10an3hRcBZci3hGzrIFyVmlCedpYmM/0gXek7HLXXbYI/MJ10bMj/ZRDpFiaFm+V325A2bp0lKubVTwomzkkrYDtewl98+8pjdbdrU/mP/7irTLliWeoRePrUjhE2pJlZ0fUHfo85Finaa+b74POrx90s0+iRtMU1dlARAqdF++YPERX13ZZfikbYPQJgeWMKoA9GDvILoafz8fF4zvgLaLM554cXEhNt1tSWbgBpVvedjCR8XKO9+VCxHpI4JolYIH29Fz4l8fhXPDrKO60Ftd9/Tm8fUaj9Lq10H9/An4HRsNXcx4adZLu9f/bOxu4KMt0//8YXp4RkcrAYznb+hd0A7UF86xkhXqKxULMFDuV+jfS1rcycnc1PsFulq5p/l3Wl1zP0bBdTU3UVaRC9AScVsFjQusLpuGpbTZJSG1AZICZ+V/PMIzDvPCSNgc4v+fzGT/Mc9/PfV339x6f576e67qveyCu9h0I32/XAb1n4tLdj8N06S2EfJYD31bf5si1pjK8/dyT+OP5ZhjqGqsczHFmo0Ri1HAD8l60GQC1p5Gddxoz1KWhrZZFy4Q8DOFRb2L3hKZGFUVBkc5mwZQV4sA/ms7ry0SJqD5Ww8oxuK7qw2yUzExEfEgWsoaOQ4w+G9OlqjGwEspjKVgUoYPuJzoovr0Q2l4P3YDRiB0g17y6DXG2vioB56FTQ5Mdhds5BEDrrJi9zNMfYuTERUO/YwLybH00XpYQQV/VcL0F0S+uRswX6zFrSV4Lo8pta2LYjRphQPZs4W81zAwofTdb2o5BtJKFPLvORpQVlyB4XjrSDVvx7u48lEt4tpV2WR6yTjZVLCstA54Q1m20m194CrNHjIBSeAtilTz88XCs6BGMbCUGvY5loswxOYexCFmiyMrEKGScrELcI6EoWF1oxam/ACROF29WmA5hkQEIqQoVndp+lqpqh9wvfeyrQ2imJCVRT/hKbypCrWNtcJccRK3DgwRIgAS8QKBrGVaSOMHvrnLJOmdL+20FFAb/5J3wuzsUDaXqTVm+x08Diuei4ZIrQfMVAzT91EQUDoZSn8HQ1H0Fs30tkNz2JSbeImsJjLtC0WOGZAX8bDyM+uYnla28xu3T1lWo/UwlTP+VC/PwSElJLunCy47AMu0JSSghRmELXWUt1L3DYP5MjK9WWutIkU/kTPgH5Dd53rST28HRuXWdhAGGoXHXMFw7eX2tgOYhCXFUE4h8nut8gXx34NOusXNoor4E9Z+ektTrYVZvpHUuaP4OFoOMixtJPEUC/xsIaKoyJKyvCDWDUvDtveKZN/dG3ZAM+JxZjqCqL61GlUUbg6uDFqGmVz38kI6LfS+g57m5uE1dh3VTIclkNqAedVcdGrU/UVork/qmcmT9ciIyZC7veCgJ4slwo6PLMtrLedh3LAVTxobh4tBonM9ZgSrJKJe8/h3x9mzC2x/mY9/hOkQku2nM6ZS2WWd1cn45H68npaGgPbd2YxlOfanDqPslvPqc+sKqfYdWkd64TfdaB8PFauj6h0PXUwyP9i7JcjYk7C8Ir+uj3/0CJp6Iw6SnJRRvTxIyn5uFLCmul2vtvG3t2Fl7aLeqsAj6aTGI/Rcxwj5Zj+wTIXh6bCxG++lQsr/ExQYt23sA1WsTET2oEvFiiC0+JnD7SmhiZjKMO+T697KRV9UP6VZLz83hZpai9dXCeCwDE1/Y7yLPTQs8RQIkQAJeI9ClQgHVxAl+hiMwtXjgSKKHsnJJaDHeOmnwGZIqawlyYTwq4RmSMtz+sSJVw9fEsBm0ANqoaPFcSXnveCjx44HTO2FyZ8Vc2QLjESP8H5nXMgOeS9vux0yj6jNEPDUB6kRDUp+PGA1NlWTqUx9+X8v+WCflLd1T68TrI2EQ0qZPb0kIMWkTFK1kPVT7YD+04lVr7o97WS3O2ur6BIuHaeQ6Wd8VjsacZdbneXs4uki4dTz8+0oYoNMCbPMpMQ6dE4hYZUvyikHS93AxJj873Q6Zsn7rAQnfvEsMKXVcgmWN3E8Hw/x1iYMh1UEGLp3gCRLoBgTECxB04kn0OS7/r2UbCH9ZX1V9z59wYXQOvnkwDxdGLofh9gD4qenWv1qBPkdeakpucbO7bjyFsrM6xMSFNXk/lDAkxso+eqqcNspKT/fBuGnN2e0UhI2Mgq69niVrP4wo3FuA0LgUJA0qEa+IPBT8BmBwmB4HNmZi/2Gx2AZFuvVW6SsMGBAR0aTzbbGIibDN6M8XSezAaCQliNdKFaFI30Y0haeFREQhzHm5FvTYtfEAdDNXIz0h0h6GpvSLQtRdnmBLVsW/nkb4hGcRZWsvuG+ILdTRiPItz+P1E7FYsmY2otwl8ZGICwTe0hTqZyxBQWkwEqc1r8WStVtPxCPkk3w4Z2wPEU8czuUhc/GvsLVCQhiH2vrsTs222q0oRNHlaMyYFIpSCYM0FhfhfNhUJA0oQ4GzYLX98/uRWxGD5PmjUfdBltWjpfw4AhG1hdiySUIFSw0IEw+ji0aNelRdFm/W0CZQyhDxUtnWW+mPlaByeBKebh67vjHXx9Fdn3iOBEiABLxEwM27IC9J7rAYNXGCey+O5cxHMI+RMLVbxcCKE8NF7sOBqVNbStCvQo26wW7FKtTJPlfKmE0ISpSKsglto6Rjv5Z3xINGYowdXYaGn66Ddvhe1B6VahpZYyUbDfs3X2GWvZuWT0ODm1etlnrZDypuHZTHRZaEDJr0uajbaduLScIeTDlTcW2kbCCcuBPaW1V9KmGRUEXLGUlq4WDo+ejmomf6XLuOptx41BY5eN0ctXfUT9ozfZEra5dS0SATCqAdHIM2oaGmJQ5N5FhoKhwz/NnKL0qGwLp11gQijX+Xc5K8Qitr09RQQcsV2SA4RzYI/joY/qPaGLsg2YBZI5OyyZK4IlCBRTyG5jOrcO3Q9XFxZmA+PA1XPY5bS/35jQS6GwFNzUEEnZGPmDJm7Y9h0jZtEOxT/y38ror36gd37VZh6xsZiFi2Gtti9aisrUZZxXnILU+O1suy3liMsN8twl8OLcJ3su6zWkLIXiku7dAQGYuzUZj2DmILp6PAGm1QjKz3piD9D9sRXVGJSgmxq3T2uohBVpSZgZJVS7HtbdFZPODV39jcU7UFyEjPwtJUSQYxW91rUELo3k1D0TExGNPWImb/BMza1jIdouGjNDyTLqGHs1fj/TS566nyDJ9jy+JZcHLG2fum35aGxbolWLrnoERGGGUD9UzMT20OB69GwbL56LViM9auNeK55yW0zh5JIRqV5mF/7Uqs/SACWemzkLEkDWGvLZREGAthlJd1xrPZSFu8X4ICHQ8F4ZNWY8lYRbbxkDrl6/GaGic4xhNuCe9srV3xNhYUA3PGluANtZMmMbQql2Jh4xYUO+h6vXVZE/ehHnNeAlakN3n2jKW7sFX/Jpa+GwH9pSpUXq109TyJnC0b8rB2/mZsnliJ6svVMqa2Vj/NwCsbVuI3aw9hilFiwmXd3f5ls1DkqUs8TwIkQAJeIuDT7847fvDHr5f60n3ESCZCZZJ4bwIkEcQeMYha7OXUfbrJnpAACZAACZAACZAACZBAdyFAw+omjaTmZxuhvfdHLVsziHdqm6yTchdieKNydQvQI0GyIToGc5o/R8OOeWiwZkzkQQIkQAIkQAIkQAIkQAIk4C0CNKy8RZpySIAESIAESIAESIAESIAEui2BLpW8otuOAjtGAiRAAiRAAiRAAiRAAiTQpQnQsOrSw0flSYAESIAESIAESIAESIAEOgMBGladYRSoAwmQAAmQAAmQAAmQAAmQQJcmQMOqSw8flScBEiABEiABEiABEiABEugMBGhYdYZRoA4kQAIkQAIkQAIkQAIkQAJdmgANqy49fFSeBEiABEiABEiABEiABEigMxCgYdUZRoE6kAAJkAAJkAAJkAAJkAAJdGkCNKy69PBReRIgARIgARIgARIgARIggc5AwK9///6dQQ/qQAIkQAIkQAIkQAIkQAIkQAJdloBPvzvvsHRZ7ak4CZAACZAACZAACZAACZAACXQCAgwF7ASDQBVIgARIgARIgARIgARIgAS6NgEaVl17/Kg9CZAACZAACZAACZAACZBAJyBAw6oTDAJVIAESIAESIAESIAESIAES6NoEaFh17fGj9iRAAiRAAiRAAiRAAiRAAp2AAA2rTjAIVIEESIAESIAESIAESIAESKBrE6Bh1bXHj9qTAAmQAAmQAAmQAAmQAAl0AgI0rDrBIFAFEiABEiABEiABEiABEiCBrk2AhlXXHj9qTwIkQAIkQAIkQAIkQAIk0AkI0LDqBINAFUiABEiABEiABEiABEiABLo2ARpWXXv8qD0JkAAJkAAJkAAJkAAJkEAnIEDDqhMMAlUgARIgARIgARIgARIgARLo2gT8uqb6CnwfyUfg3fmoXZMKU2NzLxT4PX4EPe4Jdu3WF8tQ884W+D11HH7nRuPascrrdfzGQ/vLmTD/+3jUX4pEwJx9UPrYiuv0MP1tHepyd8JsVs85launLm7C1fXLYC12ORRoIlOhjIqHb+9Q+JgNMB1bgNq8fFvNUGiGL4Dyz6PhGyLlqryz78GY9xZMtbYqkRsRdN9xXN30Fiwu7Xs64ZmRfxsMGn+ai56xYa4NW/u5F36zNkFzaDTqPjder6Odih4vxaPx99PQUCeyE2R8hodeLzeXoO73k9GAGQh8KRWakwtwdc8+h/6EIeC5ndAU3Ie6+lcRNH0yfJw1UNv4w1SYH8yHtl6uzztiq6HAJ3welAfHw+9OHXw0RliqclG3dQEaDc2NuPLQjGmtn6vgI31oIScgEv5jFsA/8j74BgEWQzka5bdhLMiFpXnwZax6TR6GxuzxuHZc74GPc8f4nQRujIBZGQhTj9th1tRDU38BvlcvQNP+m8WNCefVJEACJEACJEACVgJd07DS3Af/QUaYG0fDv78Ck32Cb0TjnmGo3qtcH95bZcKf/BhMuVvab5SYK9GwLd5qOPj0nQrlX1+FUnlcjLHypnYdyq0nzA4GxnXJTX/pUtHjkcFo2DsDdV/IRDtosBhQ39lqBcM3bgt6RH6F+g+ay4fBb8yr6DG9D65tehWmeucG2/ndI6O2rzd/FI/qAmEobShzXgX2xsOo2gjWfka23YCthvnwNFw9dLzpWzMjMUggxiXCFyBAlyvtumH3RSpqFotcjWoo5yPgm6moPSzsrW2IgdRCAzFch61DjzF90HjoVdRuOy6Ty1D49h8G2A1uucANj9b76SRHE42AKZsQYN6HOvltNFYZ5LcxHsojyxDYW0HtLgcjUQxi31Gp8Ds9D4117cbFiiTQIQLmng+j9kcJuBYyBA0BAfL/owa+pgCY/OVvSw38LxdBW7EbPb85dRONLAWjfpuDF2t/hafeLIXz/97gpzbj/eFb8dAv8zpU1qGOd7iyghjReWHlLEx8y3YP73AbHb9ASViDQ5OK8OizW4HH1mD3xOOY9Wwmyk1u2vINQ8qO6d7iewAAFKBJREFU1ej15kS8XuxM1U39m3DKUT/7+6eb0O4NNfE/wOGG9OXFJEACJOBEoGuGAvYfD9+afTB+Wgm/oaNdB1WdgFs/ofB7aCZ8/rYM9RUdfFjZ2rB8vQn1pXr4/p/BLeXYZbTeruauYdB8/R7qPz8Ni7hPLFeOoFH+th4hM6EMN6J+2zzUn5Xyeim/lI+GXTNgrJVJ+/3Rrn1r75m2GLXVTnP/1HqqN8Zq1HyPw7Gd5svNp1B/zAD/+HnQePwF2sbQfo0H+cFi+D70IzTunApjaT7MdTJFqC2H6fTO6x4/tQ1PPNrZT59hYggG7sO1ba+isUKsTHUs9VvEK7YMpv7ikRQDv/mwXNqH+otilI6673sA4yUk0AaBgBjUDPkTLt47D7Whw8QLfA69Tvxf3JGfgH/6zzjccXgRgr+tR2PvGNQOWIGLMb9HdcgdbTRqK1ZGYcmh7Zg9wLG6GFO/O4jtv1C92EYUbZiFX2e6GlXtE9D9aikD4pCSsR0HD32Mjz+WT34O0sc4vNyTLhvylmPW4l3ujaqOIBkwDovmxyGkI9ewLgmQAAmQgNcIeJzWek2DDgsST8LQ+2Ap24vGkzKRHiDhX/KC1t3hI14RpW++hGo1h4y5q9XWOXlA+smn3sPEvo3LzVVfwaJ7AgF3uoYnaiLjofniPTRcdG5bQsxKjkMTPgbfb4Daz6gN9X+wYkvxMnnLLkbRPbobkuET+Rh8K8Rw/Xtr71xvlIcY6BHDYC75s6sHsXYfGj4XD1WEoxF1EY25G2G5JxUBIS0nWDfUWV78v56A+fa5+HZEOupMObj9+Hb4aS4g6GQKelV+CR+fIJjFnetTV4SgEwsRVB0A338sxO3/fQH1ERtR9ZOHYXKJr+04UmNFOcqrOn5dt7xi4BRs+PcU6I69gScffQAPPCCfx+fj3TKne3qtHuXnW7tHtY+OootB3P1h0LZ027fvYtYiARIgARL4wQl8v3n7D65WKwL84uE/QEL1TktIxyUxrq7cB79wV6MFfqMREH8fTHmrXCfDrTTvUtR7MmRpDRpPfE/j7OwyXPubgoDkXAQmTIVG2yxBQthuD4Xl4im3IYqWKj0swep6IReN2j7RXkZtt/TD1Wg8IuvI8qGRNUt+diYdFScG0x06WCrE29fapTfKQxMOza0GmFVPlcsh67kqK6XcYT2Z1LFUbUJdqYx7nJu1Yi5t8AQJtEVAQvz6vo6qwTHwOzsXt5ftgF+PIaivK0Tgd2q88EDUDN+DigfewtUe6g/wHHpWnEPjbYPkxcMK3H50OQKCX0LVPf+KxhualKthdQexe65tDeZtMZi9PgcHD+QgZ89mLBzhcC9urSw4CskZu5Hzvnrtbmz4RQzUK9XwtKM7VmLR8jVY82/bpc01mDLQ6eWErw7JWz/GmonNshREpYn8l6MQPDIFG/bI3+8fxMcHNiNlpPOzQUHS+qNY81hzmwrGrTmKDRObvisRSViyVb1e9MrejEVjWvMNBWPc/DkI3vtr/GpLKaqabanLYnhWtBxPtV8fvz3F2kfIv1HPrMT2AwdxUPQ8+G/JCHMck8BIJL8tjF8e1cIzpYxIwTu//Tl0A6di81+2I2WE6Kxy/H/CSfTNkfZy3l6EuH6uvyW1Xyt3SJ1s6df7K5Fk61aAMgDPyvW73xdP24ENSB5i4+Kp3eBxWPPxZiT3bZKhe2Y7Ps1KadLfNxIpe3YjJeK6fGXMEuG4CBHN/QsRQzR/g1V+xDMSHmnV+2Mc3JGOOFub9qut3lOR1TwEzd7Uu2yyE9KxWfqjjnXOjiUY18LL6sqAZ0iABEjAGwS+z7TdG3p5lhEeD78rH8J0Ra1SjoZT5RIOGO+U6ECMlgdT4X9JEguccUhS4bnVphJ79olQ+E8+gqBFp9DruSdgyZX1Ty3eNtrKf30cQfIJfKi1kC9JRpE7Hlcz18HcdwF6ztt53Xsl9Fs1CNxnw2irF7J+qT2MPDTTLpkt+68yCHpB1hQ5rdjT/GydlY/1M22uq/ft81USoikhcw+2xs+Dns2nVYbmNhYy3QgPBzmtaWJPXmGvJGsAC1ahsY8k1RjU0uhqrR2WkYBHAj7XXfMddjyZ6+Gj3mwc2vAoxzcCz8rE/uCh5k8Olo519xsORtyvlyCxcgWe/HkCEqasQPltOjRp2UbZy7/BqBNpmPhoAh5O+gP0Exbi2eYJ+V29UL76Bbzwiycx/6N+mDMzVlZWOhwmPbL3n0J03M+bDA8lGokjq5H9noQnyrqyzDmiy6MP48k/AU8/k2gzZjz29nqBEoWU15NQteopuV7aSC3FiNQUxHhyOovcmMiLKPwPW2h3O0SoVYITlmLlpDpsSn4YD4ueCYt2Qd+87kqMxqTlbyLxy+X4xRsFcHQMGoszMH3xAejPbcEzE55ERrGCuJfFSLq6HtMTRd+fT8QrZSPw27Qkp1BBBbHPpGDAX+cjQeo9nPQaDly2KTswDHWZ02UcHsLz/6HDjGSVtYydp3YNhSg4EY4Yq8EaglEje6EyMAqxqlHUbwRi/IqRf/Y6COPh/SjwjcX4IU3ndGPjEFachWzpWH3ZVsx/XNX7UWRciMeMiTZjvT0cB87GkpkKMpPVsU7A/A90SJk/rv1j3R4ZrEMCJEAC34NAF0teESxG1H3wuSsePX+74Hp3678Tr8dOyUZnOxUyA9phBhgzXRNWWBolIYWf+lBwNLgkq5yaSc6e7MCAhpzJMF4cjICEVPj2kxSBZxwXPdvKz9teUda3bbxZvpb1OJty0aAmq3hMkhpsWAXzFfF0hISLLiUuQ+cTIt4qw/Hr2eZcang60Taj9jHw1L563qn/6intePR4rqWBZC5NRW3BqaaGJGGFqxGpR0Pun+E/Q0LmPn25NYEey8wGg0eGTRe1zcNj480F5ouSbyMY/n1kcnne2Wslv51Q8Txecj4vF9dLco6PJqNnnKwle0fiBXmQwPcmUA/fC4sQ0pCCyxFvoeq2jbjlq5MI0D6O2ls2IvjKOQQdexyBmhpo1Em6z0Bc7TsQvt+uA3rPxKW7H4fp0lsI+SwHvq7/EVtqZSrD2889iT+ebz6trrHKwRxn3ZVIjBpuQN6LNgOg9jSy805jhro0tNWyaJmQhyE86k3sntDUqKIoKNLZLJiyQhz4R9N5fZkoEdXHalg5BtdVfZiNkpmJiA/JQtbQcYjRZ2O6VDUGVkJ5LAWLInTQ/UQHxbcXQtvroRswGrED5JpXtyHO1lcl4Dx0gU7C7RwCoHVWzF7m6Q8xcuKiod8xAXm2PhovS4igr2q43oLoF1cj5ov1mLUkr4VR5bY1MexGjTAge7bwtxpmBpS+my1txyBayUKeHZgRZcUlCJ6XjnTDVry7Ow/lkmDHSrssD1knmyqWlZYBTwjrNtrNLzyF2SNGQCm8BbFKHv54OFb0CEa2EoNexzJR5picw1iELFFkZWIUMk5WIe6RUBSsLrSOpf4CkDhdvFlhOoRFBiCkKlR0avtZqqodcr/0sa8OoZmSlEQ94Su9qQi1jrXBXXIQtQ4PEiABEvACga5lWGnFE3NXeVPabnu4ehj8k3fC7+5QNJSqN2X5Hj8NKJ6LhkuuBM1XZCLeT01E4WAo9RkMTd1XMMvDpumQ277ExFtkLYFxVyh6zJCsgJ+Nd8hgZyuvcXzUu8pyPVMJ03/lwjw8Er5iyDWUHYFl2hPw7y1GYQtdw+B3r6zp+UyML9dGWj/TJiMJaWsXg9bEuOm/mszB+RI1GUeNG4PDsd4lCZk7/hgC4x6TRfgdPcQrVJYPyxR3DG1ttcmjPQ9ySYbxWTm00dOgOSZp9R2zDQaNR0C4ZKPccdyt8pa/rYLx3i3Q/rNjanm3VXmSBNokoKnKkLC+ItQMSsG394pn3twbdUMy4HNmOYKqvrQaVRZtDK4OWoSaXvWS9jUdF/teQM9zc3Gbug6rTQkdqSCT2YB61F11uMb+RGmtTOqbypH1y4nIkLm846EkyPsINyq4LKO9nId9x1IwZWwYLg6NxvmcFaiSjHLJ698Rb88mvP1hPvYdrkNEspvGnE5pm3VWJ+eX8/F6UhoK2nNrN5bh1Jc6jLpf1omea+M+5yBTq0hv3KZ7rYPhYjV0/cOh6ymGR3uXZDkbEo73J5tc/e4XMPFEHCY9LaF4e5KQ+dwsZElZvVxr521rx87aQ7tVhUXQT4tB7L+IEfbJemSfCMHTY2Mx2k+Hkv0lLtkgy/YeQPXaREQPqkS8GGKLjwncvhKamJkM4w65/r1s5FX1Q7rV0nNzuJmlaH21MB7LwMQX9rvIc9MCT5EACZCA1wh0qVBAn0FiWBmOwNTigSOJHsrKJaHFeOukwWeIeD+CxVNwVMIzJF23/WNFKhPxE2LYDFoAbVS0eK6kvHc8lPjxgJpFzp0Vc2ULjEeM8H/EKYOdS9vux0yj6jNEvGwB6kQjDL4jRkNTdbpp762vZX+sk/KW7ql1kjZewiCkTZ/ekkJ+0iYoWsl6qPbBfmjFq9bcH/ey1LNtM/oeDDyLa7ukWWePNUWf/5SQuZDJYmB6rOS5QC/hnqeF4ZSN8A+PbBpTrXAeMtW611TbPDw37VhiPiqZJc2T0WOyrAmT/cagCYaPbiq0T8meXLKOrt5d2nhrA6fFK7cTGC6ZLLvU/7b2cWGt/wEC4gUIOvEk+hxfh0DZBsJf1ldV3/MnXBidg28ezMOFkcthuD0Afmq69a9WoM+Rl5qSW9xsVY2nUHZWh5i4sCbvhxKGxFjZ50+V00ZZ6ek+GDetObudgrCRUdC117Nk7YcRhXsLEBqXgqRBJeIVkYeC3wAMDtPjwMZM7D8sFtugSLfeKn2FAQMiIpp0vi0WMRG2Gf35IokdGI2kBPFaqSIU6duIpvC0kIgohDkv14IeuzYegG7maqQnRNrD0JR+UYi6yxNsyar419MIn/AsomztBfcNsYU6GlG+5Xm8fiIWS9bMRpTqKXM+JOICgbc0hfoZS1BQGozEac1rsWTt1hPxCPkkH84Z20PEE4dzechc/CtsrZAQxqGerBgVbRvtVhSi6HI0ZkwKRamEQRqLi3A+bCqSBpShwFmwqv/5/citiEHyfNn78IMsq0dL+XEEImoLsWWThAqWGhAmHkYXjRr1qLos3qyhTaCUIeKlsq230h8rQeXwJDzdPHZ9Y66PozMzficBEiABLxJw8y7Ii9I7JEoysw1278WxnPkI5jFj4XerGFhxYrjIfTgwdWrL1vWrUKNusFuxCnWyz5UyZhOCEqWibMjbKOnYr9k3m3VWSib+Mqlu+Ok6aIfvRe1RKZd9ktRNdv2bq5qPoG65bIzr5lWrpV72YopbB+VxkSUhgya9bFy7U9ZbWa+V7zlTcW2kpOtO3Antrao+lbBIqKLljCS1cDD0fHRz0TN9rl05U248aoscvG7WknYwCtqEhg4zsIvt0B+akX9Gr5HNl0j44FbZ/NdpUbe1VA2ZOzRZ9qwa1qH2mypXyma8NoaPiGdIZdgoXP8uhun5dvKweypbEa8m23hnHsxxkmkyeQZ6SMINy5XTaPxENns+LF6zVi6FGNDGM+MhSxF4kMBNI6CpOYigM/IRU8as/TFM2qYNgn3qv4XfVfFetfqjvBlqVGHrGxmIWLYa22L1qKytRlnFecgtT47Wy7LeWIyw3y3CXw4twncmI6olhOyV4tIOKWUszkZh2juILZyOAuv/4WJkvTcF6X/YjuiKSlRKiF2ls9dFTRefmYGSVUux7W3R2aBH9Tc291RtATLSs7A0VZJBzFb3GpQQunfTUHRMDMa0tYjZPwGztrVMh2j4KA3PpEvo4ezVeD9NbgqqPMPn2LJ4Fpyccfa+6belYbFuCZbuOSiREUYYz2ZifmpzOHg1CpbNR68Vm7F2rRHPPS+hdQ73J2NpHvbXrsTaDyKQlT4LGUvSEPbaQkmEsRBG8VQZz2YjbfF+CQp0PBSET1qNJWMV2cZD6pSvx2tqnOAYT7glvLO1dsXbWFAMzBlbgjfUTprE0KpcioWNW1Ds9l4qa+I+1GPOS8CK9CbPnrF0F7bq38TSdyOgv1SFyquVrp4nkbNlQx7Wzt+MzRMrUX25WsbUpvOnGXhlw0r8Zu0hTDHKGgBZd7d/2SwUeeoSz5MACZCAlwj49Lvzjh/88eulvnQfMZKJUJkkyTcCZDK/JxUNX7c3JqT7IGBPSIAESIAESIAESIAESKArEaBhdZNGS/OzjdDe+6OWrRnEO7VN1km5CzG8Ubm6BeiRINkQHcPLzJ+jYcc8NFgzJvIgARIgARIgARIgARIgARLwFgEaVt4iTTkkQAIkQAIkQAIkQAIkQALdlgCX03fboWXHSIAESIAESIAESIAESIAEvEWAhpW3SFMOCZAACZAACZAACZAACZBAtyVAw6rbDi07RgIkQAIkQAIkQAIkQAIk4C0CNKy8RZpySIAESIAESIAESIAESIAEui0BGlbddmjZMRIgARIgARIgARIgARIgAW8RoGHlLdKUQwIkQAIkQAIkQAIkQAIk0G0J0LDqtkPLjpEACZAACZAACZAACZAACXiLAA0rb5GmHBIgARIgARIgARIgARIggW5LwK9///7dtnPsGAmQAAmQAAmQAAmQAAmQAAl4g4BPvzvvsHhDEGWQAAmQAAmQAAmQAAmQAAmQQHclwFDA7jqy7BcJkAAJkAAJkAAJkAAJkIDXCNCw8hpqCiIBEiABEiABEiABEiABEuiuBGhYddeRZb9IgARIgARIgARIgARIgAS8RoCGlddQUxAJkAAJkAAJkAAJkAAJkEB3JUDDqruOLPtFAiRAAiRAAiRAAiRAAiTgNQI0rLyGmoJIgARIgARIgARIgARIgAS6KwEaVt11ZNkvEiABEiABEiABEiABEiABrxGgYeU11BREAiRAAiRAAiRAAiRAAiTQXQnQsOquI8t+kQAJkAAJkAAJkAAJkAAJeI0ADSuvoaYgEiABEiABEiABEiABEiCB7kqAhlV3HVn2iwRIgARIgARIgARIgARIwGsEaFh5DTUFkQAJkAAJkAAJkAAJkAAJdFcC/x+KG6sKOuD3XgAAAABJRU5ErkJggg==;" vertex="1" parent="1">
          <mxGeometry x="604" y="529" width="854" height="204" as="geometry" />
        </mxCell>
        <mxCell id="YwGUfQmkmMPsnKosTZOE-10" value="system assigned&amp;nbsp;&lt;br&gt;managed identity" style="whiteSpace=wrap;html=1;rounded=1;" vertex="1" parent="1">
          <mxGeometry x="658" y="309" width="120" height="60" as="geometry" />
        </mxCell>
        <mxCell id="YwGUfQmkmMPsnKosTZOE-15" value="" style="edgeStyle=orthogonalEdgeStyle;rounded=0;orthogonalLoop=1;jettySize=auto;html=1;" edge="1" parent="1" source="YwGUfQmkmMPsnKosTZOE-12" target="YwGUfQmkmMPsnKosTZOE-14">
          <mxGeometry relative="1" as="geometry" />
        </mxCell>
        <mxCell id="YwGUfQmkmMPsnKosTZOE-12" value="DefaultAzureCredential" style="whiteSpace=wrap;html=1;rounded=1;" vertex="1" parent="1">
          <mxGeometry x="-145" y="174" width="120" height="60" as="geometry" />
        </mxCell>
        <mxCell id="YwGUfQmkmMPsnKosTZOE-14" value="azure.identity" style="whiteSpace=wrap;html=1;rounded=1;" vertex="1" parent="1">
          <mxGeometry x="-345" y="174" width="120" height="60" as="geometry" />
        </mxCell>
      </root>
    </mxGraphModel>
  </diagram>
</mxfile>
